<svg xmlns="http://www.w3.org/2000/svg" xmlns:xlink="http://www.w3.org/1999/xlink" width="500" zoomAndPan="magnify" viewBox="0 0 375 374.999991" height="500" preserveAspectRatio="xMidYMid meet" version="1.0"><path fill="#8c52ff" d="M 70.980469 285.128906 C 48.816406 258.730469 35.515625 224.675781 35.515625 187.5 C 35.515625 103.574219 103.574219 35.515625 187.5 35.515625 C 271.476562 35.515625 339.535156 103.574219 339.535156 187.5 C 339.535156 234.550781 318.175781 276.617188 284.625 304.472656 L 259.386719 279.234375 C 286.589844 257.925781 304.019531 224.726562 304.019531 187.5 C 304.019531 123.167969 251.878906 70.980469 187.5 70.980469 C 123.167969 70.980469 70.980469 123.167969 70.980469 187.5 Z M 141.960938 294.800781 L 141.960938 332.582031 C 129.367188 328.652344 117.425781 323.0625 106.496094 316.160156 L 106.496094 187.5 C 106.496094 142.765625 142.765625 106.496094 187.5 106.496094 C 232.285156 106.496094 268.554688 142.765625 268.554688 187.5 C 268.554688 214.953125 254.902344 239.234375 233.996094 253.894531 C 223.519531 261.25 211.175781 266.1875 197.828125 267.898438 L 227.09375 297.167969 L 230.722656 300.796875 L 254.148438 324.171875 L 280.394531 350.46875 C 290.871094 344.472656 300.695312 337.46875 309.8125 329.660156 C 349.710938 295.253906 375 244.324219 375 187.5 C 375 83.925781 291.074219 0 187.5 0 C 83.925781 0 0 83.925781 0 187.5 C 0 247.042969 27.757812 300.089844 70.980469 334.445312 C 81.910156 343.113281 93.800781 350.566406 106.496094 356.664062 C 117.730469 362.054688 129.617188 366.386719 141.960938 369.457031 C 153.394531 372.328125 165.285156 374.09375 177.476562 374.75 C 180.800781 374.949219 184.125 375 187.5 375 C 207.800781 375 227.296875 371.828125 245.582031 365.832031 L 216.515625 336.765625 C 207.148438 338.578125 197.425781 339.535156 187.5 339.535156 C 184.125 339.535156 180.800781 339.433594 177.476562 339.183594 L 177.476562 231.933594 C 180.699219 232.6875 184.074219 233.039062 187.5 233.039062 C 212.636719 233.039062 233.039062 212.636719 233.039062 187.5 C 233.039062 162.363281 212.636719 141.960938 187.5 141.960938 C 162.363281 141.960938 141.960938 162.363281 141.960938 187.5 Z M 141.960938 294.800781 " fill-opacity="1" fill-rule="evenodd"/></svg>